<svg width="200" height="200" viewBox="0 0 200 200" xmlns="http://www.w3.org/2000/svg">
  <!-- Background circle -->
  <circle cx="100" cy="100" r="90" fill="#1e3a5f" stroke="none"/>
  
  <!-- Dog silhouette -->
  <g transform="translate(100, 100)">
    <!-- Dog body -->
    <path d="M-15,-20 Q-25,-15 -30,-5 Q-35,5 -30,15 Q-25,25 -15,30 L15,30 Q25,25 30,15 Q35,5 30,-5 Q25,-15 15,-20 Z" fill="#7dd3fc"/>
    
    <!-- Dog head -->
    <path d="M15,-20 Q25,-25 35,-15 Q40,-10 38,-5 Q35,0 30,2 Q25,5 20,3 Q15,0 15,-5 Z" fill="#a3e635"/>
    
    <!-- Dog ears -->
    <path d="M20,-25 Q15,-30 10,-25 Q12,-20 15,-22 Q18,-24 20,-25" fill="#a3e635"/>
    <path d="M30,-22 Q35,-27 40,-22 Q38,-17 35,-19 Q32,-21 30,-22" fill="#a3e635"/>
    
    <!-- Dog tail -->
    <path d="M-30,10 Q-40,5 -45,15 Q-40,25 -30,20" fill="#7dd3fc"/>
    
    <!-- Collar -->
    <rect x="10" y="-8" width="15" height="4" fill="#60a5fa" rx="2"/>
    <circle cx="17" cy="-6" r="1" fill="white"/>
    <circle cx="20" cy="-6" r="1" fill="white"/>
    <circle cx="23" cy="-6" r="1" fill="white"/>
  </g>
  
  <!-- Infinity symbol -->
  <g transform="translate(100, 120)">
    <path d="M-25,0 Q-35,-10 -25,-20 Q-15,-10 -5,0 Q5,-10 15,-20 Q25,-10 15,0 Q5,10 -5,0 Q-15,10 -25,0 Z" 
          fill="none" 
          stroke="white" 
          stroke-width="4" 
          stroke-linecap="round"/>
  </g>
  
  <!-- Motion lines -->
  <g transform="translate(60, 80)">
    <path d="M0,0 Q5,-5 10,0" fill="none" stroke="#a3e635" stroke-width="2" stroke-linecap="round"/>
    <path d="M0,8 Q5,3 10,8" fill="none" stroke="#a3e635" stroke-width="2" stroke-linecap="round"/>
    <path d="M0,16 Q5,11 10,16" fill="none" stroke="#a3e635" stroke-width="2" stroke-linecap="round"/>
  </g>
</svg>